<?xml version="1.0" encoding="iso-8859-1"?>
<!-- Generator: Adobe Illustrator 16.0.0, SVG Export Plug-In . SVG Version: 6.00 Build 0)  -->
<!DOCTYPE svg PUBLIC "-//W3C//DTD SVG 1.1//EN" "http://www.w3.org/Graphics/SVG/1.1/DTD/svg11.dtd">
<svg version="1.1" id="Capa_1" xmlns="http://www.w3.org/2000/svg" xmlns:xlink="http://www.w3.org/1999/xlink" x="0px" y="0px"
	 width="409.049px" height="409.049px" viewBox="0 0 409.049 409.049" style="enable-background:new 0 0 409.049 409.049;"
	 xml:space="preserve">
<g>
	<g>
		<path d="M289.621,34.224c0-23.853-68.739-28.018-68.739-28.018C220.317,2.69,217.279,0,213.604,0h-30.905
			c-3.676,0-6.714,2.69-7.278,6.206c0.001,0-68.741,4.165-68.741,28.018v7.417h182.943L289.621,34.224L289.621,34.224z"/>
		<path d="M305.572,86.29h-15.896V70.458c0-2.485-2.016-4.5-4.5-4.5H77.979c-1.734,0-3.314,0.997-4.062,2.563
			c-0.746,1.565-0.527,3.42,0.564,4.769l32.202,37.428v189.574h182.991V116.29h15.896v113.851c0,8.283,6.716,15,15,15
			s15-6.717,15-15V116.29C335.572,99.748,322.114,86.29,305.572,86.29z"/>
		<path d="M294.186,324.291H102.171l-27.74,70.041c-1.312,3.312-0.898,7.061,1.104,10.006c2.002,2.947,5.334,4.711,8.896,4.711
			h227.514c5.94,0,10.756-4.814,10.756-10.756c0-1.639-0.366-3.191-1.021-4.58L294.186,324.291z M214.429,354.291h-32.5
			c-4.004,0-7.25-3.246-7.25-7.25s3.246-7.25,7.25-7.25h32.5c4.004,0,7.25,3.246,7.25,7.25S218.433,354.291,214.429,354.291z"/>
	</g>
</g>
<g>
</g>
<g>
</g>
<g>
</g>
<g>
</g>
<g>
</g>
<g>
</g>
<g>
</g>
<g>
</g>
<g>
</g>
<g>
</g>
<g>
</g>
<g>
</g>
<g>
</g>
<g>
</g>
<g>
</g>
</svg>
